<svg xmlns="http://www.w3.org/2000/svg" viewBox="0 0 64 64">
  <!-- Body -->
  <ellipse cx="32" cy="36" rx="22" ry="16" fill="#76B041"/>
  <!-- Head -->
  <ellipse cx="52" cy="32" rx="8" ry="10" fill="#76B041"/>
  <!-- Snout -->
  <ellipse cx="57" cy="33" rx="5" ry="4" fill="#5D8A2F"/>
  <!-- Nostrils -->
  <circle cx="56" cy="32" r="1" fill="#3D5E1F"/>
  <circle cx="58" cy="32" r="1" fill="#3D5E1F"/>
  <!-- Eye -->
  <circle cx="50" cy="29" r="1.5" fill="#2B2D35"/>
  <!-- Ears -->
  <path d="M46 24 Q44 18 48 20 Q50 22 48 26 Z" fill="#5D8A2F"/>
  <path d="M50 22 Q50 16 54 19 Q55 22 52 24 Z" fill="#5D8A2F"/>
  <!-- Legs -->
  <rect x="16" y="48" width="5" height="8" rx="2" fill="#5D8A2F"/>
  <rect x="26" y="48" width="5" height="8" rx="2" fill="#5D8A2F"/>
  <rect x="36" y="48" width="5" height="8" rx="2" fill="#5D8A2F"/>
  <rect x="44" y="48" width="5" height="8" rx="2" fill="#5D8A2F"/>
  <!-- Tail -->
  <path d="M10 32 Q6 28 8 24 Q10 28 12 30" stroke="#5D8A2F" stroke-width="2" fill="none" stroke-linecap="round"/>
  <!-- Coin slot -->
  <rect x="28" y="20" width="10" height="3" rx="1.5" fill="#5D8A2F"/>
</svg>
